<?xml version="1.0" encoding="UTF-8"?>
<svg version="1.1" viewBox="0 0 1600 1600" width="150" height="150" xmlns="http://www.w3.org/2000/svg">
<path transform="translate(0)" d="m0 0h1600v1600h-1600z" fill="#FCFCFC"/>
<path transform="translate(1301,467)" d="m0 0h37l28 2 26 4 26 6 21 7 11 6 8 5 8 11 5 16 6 26 4 22 3 24 2 29v44l-2 38-4 37-6 36-9 39-10 33-11 28-10 21-11 18-8 10-8 9-10 7-17 10-18 8-18 6-22 5-33 5-29 3-22 1h-21l-36-2-18-2-24-6-20-8-14-7-17-12-14-12-14-14-10-14-10-19-6-18-7-38-9-69v-10h-2l-1 13-6 31-9 36-12 36-10 24-11 21-10 15-8 10-10 11-15 11-17 8-21 6-13 2h-57l-28-3-27-5-36-9-21-8-23-12-19-14-15-13-15-14-7-8-12-14-12-17-10-17-10-21-12-36-7-23 1-12 4-32 3-37 1-18v-63l-1-21 5-9 12-14 6-8 9-10 13-10 18-10 26-10 28-8 27-6 31-5 36-4 42-3 94-3 21-1h21l16 4 19 10 10 8 7 8 6 12 4 23 3 24 11-12 5-6 8-7 13-10 16-10 19-10 28-12 30-10 31-8 36-7 35-5 22-2z" fill="#FB0001"/>
<path transform="translate(1075,260)" d="m0 0h84l45 3 44 5v1l-29-1h-61l-43 2-48 4-49 6-46 7-48 9-50 11-55 14-41 12-38 12-50 17-45 17-44 18-30 13-35 16-29 14-54 27-33 18h14l7-1 47-2h13l16 3 12 5 9 5v2l4 1v2h2l10 10 4 3 5 13 5 32 3 24 1 18v63l-3 44-4 36-2 14 1 9 8 26-1 4-2 1-6 29-7 27-8 25-6 18-4 8-3 7-8 16-5 9-9 14-9 11-5 6-5 2-2 4-15 10-14 6-11 4-18 4-20 2h-20l-21-1-34-5-24-6-30-8-13-5-15-7-12-7-10-7-14-11-11-9-5-5-6-7-5-5-10-11-10-13-4-5-2-5-6-8-3-7-4-6-2-5-3-7-2-6-7-16-4-13-9-29-5-18-5-24-3-23-1-9v-49l3-30 3-15 6-20 9-18 14-18 8-11 3-4h2l1-3 7-6h2v-2l16-10 25-10 18-6 13-4 23-5 14-3 42-6 15-2 25-2h9l5-4 49-28 32-17 29-15 39-19 24-11 44-19 27-11 31-12 44-16 49-16 41-12 46-12 49-11 43-8 39-6 41-5 36-3z" fill="#FDFD01"/>
<path transform="translate(938,478)" d="m0 0h21l16 4 19 10 10 8 7 8 6 12 4 23 4 36 2 33v45l-3 45-3 27-8 48-9 40-8 28-9 26-10 23-10 19-10 15-8 10-10 11-15 11-17 8-21 6-13 2h-57l-28-3-27-5-36-9-21-8-23-12-19-14-15-13-15-14-7-8-12-14-12-17-10-17-10-21-12-36-7-23 1-12 4-32 3-37 1-18v-63l-1-21 5-9 12-14 6-8 9-10 13-10 18-10 26-10 28-8 27-6 31-5 36-4 42-3 94-3z" fill="#0000F8"/>
<path transform="translate(1233,575)" d="m0 0h44l21 2 25 5 21 7 23 11 14 9 12 9 15 15 11 15 8 16 5 13 4 18v28l-2 17-4 19-7 20-8 17-10 16-3 4h-2l-1 4h-2l-1 4-5 4-7 8-5 5-11 9-7 5h-3v2l-5 3h-3v2l-9 5h-3v2l-22 11-10 4-25 9-25 7-29 6-28 4-11 1h-30l-68-3-9-1-1-5-1-18 46-1 4-148v-18l-2-70v-28h-45l2-21 1-4 36-5 54-7 42-6z" fill="#FBFBFB"/>
<path transform="translate(343,566)" d="m0 0h10l153 13 1 2v28l-1 1h-58l-2 5-4 43-5 66-4 44-6 25-3 12-5 16-4 9-2 5 1 2-3 7-2 4v3l125 1v-2h3l1-3h2l7-21 8-33 6-35 2 4 9 30-1 4-2 1-6 29-7 27-8 25-6 18-4 8-3 7-8 16-5 9-9 14-9 11-5 6-5 2-2 4-15 10-14 6-11 4-18 4-20 2h-20l-21-1-34-5-24-6-30-8-13-5-15-7-12-7-10-7-14-11-11-9-5-5-6-7-5-5-10-11-10-13-4-5-2-5-6-8-3-7-4-6-2-5-3-7-2-6-6-14 1-4 2 7h2l5 10 3 4v2l4-1 4 5 53-1 5-1 1-10 5-17 6-11 8-10 3-2-1-4h-14l-7-1-1-1 1-13 2-4 20 2 84 10 3 2-6 11h-3l-2 4-29-3h-12l-7 6-10 14-5 10h2v17l2 2 2-1h61l4-1 1 1h7l8-2v-2l6-2 2-4 6-7 8-17 6-19 4-21 3-53 6-88 2-30-24-5-13-3-12-2-2-3 6-26z" fill="#FCFCFC"/>
<path transform="translate(1018,728)" d="m0 0 2 3-3 21-5 29-8 36-8 28-9 26-10 23-10 19-10 15-8 10-10 11-15 11-17 8-21 6-13 2h-57l-28-3-27-5-36-9-21-8-23-12-19-14-15-13-15-14-7-8-12-14-12-17-10-17-10-21-6-18 1-3 9 23v2h9l9 2h119l4-5 2 4 3 1 2-8-9-28 1-2 5 12 24 71 6 17 15 1h57l18-41 16-36 2-1v5l-1 1v9h122v2h2l1-4h2l1 6 2 1 2-9 8-32 5-24 5-35z" fill="#010061"/>
<path transform="translate(1232,611)" d="m0 0h27l19 3 15 5 19 9 12 9 7 5 8 11 1 3h2l8 17 5 19 1 8v23l-4 24-6 22-7 17-9 17-14 20-12 13-7 7-14 11-14 9-23 11-19 7-14 4-24 3v-19l3-171 1-60 2-21 7-2 20-3z" fill="#FB0001"/>
<path transform="translate(756,562)" d="m0 0 5 1 6 13-5 5-14 10-13 10-8 6h-2l13 37 20 55 19 53 34 94v3h2l2-6 12-25 17-35 11-23 12-25 14-29 13-27 11-23 16-33 8-17-5-1-52-26 1-6 5-11 8 1 80 21 29 8-1 11-1 6-12 1-25 1-20 45-18 41-57 129-18 41-10 23-1 1h-57l-15-1-4-10-15-43-12-36-12-34-12-36-19-55-15-44-4-11v-2l-45 7-4-1-6-22 8-3 79-22z" fill="#FBFBFB"/>
<path transform="translate(1474,769)" d="m0 0h1l-1 11-9 39-10 33-11 28-10 21-11 18-8 10-8 9-10 7-17 10-18 8-18 6-22 5-33 5-29 3-22 1h-21l-36-2-18-2-24-6-20-8-14-7-17-12-14-12-14-14-10-14-10-19-3-8 1-4 3 6 2 3 4-1 2 3 3-2h19l5 1 5-5 7 1h24l12-1v-6l2 3v6l-1 1h-46l1 2 1 21 30 1 47 2h30l33-4 31-6 26-7 18-6 10-4 12-5 18-9h2v-2l10-5h2v-2l6-3h2v-2l7-4 9-7 5-5 10-9 5-5 1 2-1 2h-2v3l7-5 1 2h46l5-1 2 6 5-2 2-10 3-1 2-13 6-25z" fill="#190000"/>
<path transform="translate(397,864)" d="m0 0 135 1 1 4 1 6-10 24-8 16-10 17-11 14-13 13-14 9-11 5-18 6-16 3-11 1h-36l-28-3-26-5-38-10-19-7-17-8-14-9-14-11-9-7v-2l-4-2-17-17-11-14-9-11-3-7 1-5h57l5 9 4 6 3 4 7 4 2 3 13 6 9 2 18 2h17l23-2 17-4 14-5 11-6 7-5 5-2 3-1v-2l6-4 3-3 5-1z" fill="#6C6B02"/>
<path transform="translate(114,1024)" d="m0 0h1370v17h-1371v-16z" fill="#4A4A4A"/>
<path transform="translate(971,898)" d="m0 0h2l-1 6-12 20-10 13-11 12-15 11-17 8-21 6-13 2h-57l-28-3-27-5-36-9-21-8-23-12-19-14-15-13-10-9v-1h5l4 4 318 1 5-5z" fill="#010130"/>
<path transform="translate(1075,260)" d="m0 0h84l45 3 44 5v1l-29-1h-61l-43 2-48 4-49 6-46 7-48 9-50 11-55 14-41 12-38 12-50 17-45 17-44 18-30 13-35 16-29 14-54 27-22 12-13 7-30 1h-16l5-4 49-28 32-17 29-15 39-19 24-11 44-19 27-11 31-12 44-16 49-16 41-12 46-12 49-11 43-8 39-6 41-5 36-3z" fill="#FA0001"/>
<path transform="translate(1474,769)" d="m0 0h1l-1 11-9 39-10 33-11 28-10 21-7 12h-3v2h-3l-1 5-5 1-14 2h-329l-4 1-1-3-7-1-10-14-10-19-3-8 1-4 3 6 2 3 4-1 2 3 3-2h19l5 1 5-5 7 1h24l12-1v-6l2 3v6l-1 1h-46l1 2 1 21 30 1 47 2h30l33-4 31-6 26-7 18-6 10-4 12-5 18-9h2v-2l10-5h2v-2l6-3h2v-2l7-4 9-7 5-5 10-9 5-5 1 2-1 2h-2v3l7-5 1 2h46l5-1 2 6 5-2 2-10 3-1 2-13 6-25z" fill="#4B0000"/>
<path transform="translate(1187,306)" d="m0 0h56l46 2 47 4 47 6 41 7 30 6v1l-11-1-42-6-39-4-50-3h-90l-53 3-52 5-45 6-48 8-50 10-55 13-37 10-50 15-36 12-32 11-45 17-39 16-28 12-40 18-29 14-23 11-10 5-8-4v-2l-3-1v-2l28-16 26-14 23-12 28-14 33-15 35-15 41-16 36-13 42-14 41-12 42-11 39-9 52-10 45-7 42-5 49-4z" fill="#0000F1"/>
<path transform="translate(455,1161)" d="m0 0h721v17h-721z" fill="#4F4F4F"/>
<path transform="translate(561,758)" d="m0 0 2 4 9 30-1 4-2 1-6 29-7 27-8 25-6 18-4 8-3 7-8 16-5 9-9 14-9 11-5 6-5 2-2 4-15 10-14 6-11 4-18 4-20 2h-20l-21-1-34-5-24-6-30-8-13-5-15-7-12-7-10-7-14-11-11-9-5-5-6-7-5-5-10-11-10-13-4-5-2-5-6-8-3-7-4-6-2-5-3-7-2-6-6-14 1-4 2 7h2l5 10 3 4v2l4-1 4 5 53-1 5-1 1-10 5-17 6-11 8-10 3-2v-3h3l-2 5-4 5 6 2 1 7-9 12-4 8-4 17v16l3 9 5 7-4-2-4-5-6-12h-56l-1 4 4 8 16 20 11 12 10 10 2 1v2l4 2 16 13 19 12 17 8 24 8 40 10 25 4 20 2h36l18-2 19-5 19-8 11-7 10-9 7-7 11-15 10-18 8-16 8-20-1-6v-3l-133-1-2-1v2l-6 2-5 5-3 1v2l-4 3-2-1 17-16 9-12 9-15 2 2-3 7-2 4v3l125 1v-2h3l1-3h2l7-21 8-33z" fill="#9D9D9E"/>
<path transform="translate(511,920)" d="m0 0 1 2-9 14-9 11-12 12-14 9-11 5-18 6-16 3-11 1h-36l-28-3-26-5-38-10-19-7-17-8-14-9-14-11-1-2 5 2 6 2 5-2h264l4 1z" fill="#282600"/>
<path transform="translate(1196,353)" d="m0 0h20l35 2 29 3 25 4 19 4 18 5 24 7 14 5 25 10 19 9 1 2-9-2-16-6-24-7-7-2v-2l-8-1-19-4-37-6-35-3h-69l-34 3-35 5-37 7-32 8-26 7-32 11-9 3-37 14-12 5-26 12-35 17-33 17-3 1h-28l1-4 15-10 12-7 15-9 16-9 19-10 16-8 21-10 8-3 9-4 27-11 19-7 12-3 9-4 36-10 25-6 34-6 35-5z" fill="#F8F806"/>
<path transform="translate(1222,317)" d="m0 0h90l50 3 47 5 7 1v3h-3v2l2 1-3 1-1-1-48-1-4-1h-15l-50-2h-63l-68 4-4 1-26 2-27 3-21 3-51 8-25 5-27 5-29 7-21 5-19 4-4 2-7 2-11 3-41 12-22 6-9 4-13 4-29 10-21 7-9 4-16 6-35 14-11 5-25 10-14 7-11 4-14 7-14 6-16 8-7 3h-3v2l-19 9-1 5 4 13 5 13 4 24 1 3-2 7-3 4-2-13-4-28-3-15-3-6v-4l-4-2-10-10 6 2 30-15 28-13 19-9 36-16 36-15 41-16 44-16 36-12 28-9 52-15 56-14 47-10 50-9 48-7 45-5 38-3z" fill="#D8D9DA"/>
<path transform="translate(1158,267)" d="m0 0h61l20 1v1l-6 1 4 2-7 1-9-1v2l-9 3-72 3-27 1-44 4-44 5-28 4-36 6-30 6-18 3-12 3-6 1-4 2-32 7-17 4-23 7-10 2-5 2-8 2-29 9-25 8-21 7-19 7-12 4h-6v2l-15 6-10 3-8 4-29 11-10 5-12 4-10 5-12 5-13 6-21 9-3 2-6 2-8 5-10 4-8 4-11 6-8 4-5 1-1 2-12 6-7 4-5 2-12 7-14 3h-16l4-3 26-14 27-14 54-27 33-15 34-15 44-18 42-16 37-13 52-17 52-15 64-16 57-12 47-8 41-6 56-6 44-3z" fill="#D8D9DA"/>
<path transform="translate(801,1218)" d="m0 0h8l-1 13 2 9 2 4v5l-2 3-4-2-2-2-1-6-6-3 1-5-12 5-7 5 12-1 7 5-2 4-1 4 6 7-5 3-2 5-7 7v6h-3v-2l-7-1-1 6 7 2 2 4 11 4 7 6 7 2 1 4-2 2-2 6-5 3-3 7-2 4 12 2 13-1 13-5-1-14 2-3-1-5-1-3-9-2-5-6v-6l5-8 9-1 5 9 5 3 8-1 4-5 9-16 6-9h2l3 11 1 8v11l-4 15-7 14-9 10-9 8-16 8-12 3h-17l-15-4-10-5-13-10-8-10-8-16-3-16v-12l4-16 7-13 9-10 8-7 12-7z" fill="#040404"/>
<path transform="translate(1331,797)" d="m0 0 1 2-10 16-8 10-9 10-8 8-14 11-14 9-23 11-19 7-14 4-24 3v-19l1-50 1-20h1l1 7 3 1 2 2 1-1h112l3 1 2-4 4-2v3l-1 4 2 1 1-3h2l1-5 5-5z" fill="#DC0000"/>
<path transform="translate(724,789)" d="m0 0 2 1 15 43 12 37-4 4-3 1h-121l-1 2-1-2-5-2v-2l-6-1-6-7-3-1-8-13-12-23-8-23 1-3 9 23v2h9l9 2h119l4-5 2 4 3 1 2-8-9-28z" fill="#0001BD"/>
<path transform="translate(1470,520)" d="m0 0h2l6 18 5 21 4 22 3 23 2 25v63l-3 42-5 40-5 25-7 29-7 24-9 26-8 18-9 19-8 13-10 13-11 11-15 10-23 11-24 8-36 7-31 4-29 2h-35l-42-3-22-5-21-7-16-8-15-9v-2l-5-2-12-10-5-5-10-9-1-4 5 2 11 10 18 13 12 7 20 8 16 5 20 4 24 2 23 1h21l34-2 38-5 26-5 21-6 21-9 16-9 14-10 9-10 10-15 10-18 11-25 7-20 9-29 9-39 6-36 4-37 2-38v-44l-3-38-4-27-6-28-2-8z" fill="#9D9DA0"/>
<path transform="translate(1018,728)" d="m0 0 2 3-3 21-5 29-8 36-8 28-9 26h-3l-3 3-3-1-3 3-130-1-4-5 10-23 14-32 3-3v5l-1 1v9h122v2h2l1-4h2l1 6 2 1 2-9 8-32 5-24 5-35z" fill="#0001BC"/>
<path transform="translate(190,901)" d="m0 0 4 2 7 6 2-2 4 1h311v-2h2l-2 5-5 9-4 4-6 8-6-1h-266l-1 2-6-2-8-4-5-4v-2l-4-2-17-17z" fill="#4A4A00"/>
<path transform="translate(1424,913)" d="m0 0 2 1-9 13-10 11-4 2-11 1-2 4h-2v-2l-4-1-284-1-13-1-3 1v-3h-6l-17-17v-2l6 2 1 2 9-1h324l10-1 4-1h4l2-5h3z" fill="#360000"/>
<path transform="translate(690,940)" d="m0 0 6 2 4 4 1-4 1-1h10v1h212l6-1 7 2 2 6-15 11-17 8-21 6-13 2h-57l-28-3-27-5-36-9-21-8-16-8v-2z" fill="#010016"/>
<path transform="translate(1201,370)" d="m0 0h69l35 3 43 7 21 5v2l9 2 22 6 1 3-1 1-10-1-5-1-15-1-14-3-15-3-9-1-3-1-23-3-6-1-44-3h-31l-25 1-40 4-12 2-31 5-23 5-21 5-29 8-31 10-33 12-9 4-26 10-16 8-11 5-10 5-7 3-17 9-6 2 10 1v1h-38l3-2 47-24 31-15 19-8 25-10 32-12 30-10 30-8 33-8 38-7 38-5z" fill="#D8D9DA"/>
<path transform="translate(441,806)" d="m0 0h109l1 9-7 24-4 10-2-1-1 2h-3v2l-8 1-118-1 1-6 3-5 1-5-1-2 4-7 5-14 4-6h11z" fill="#E8E701"/>
<path transform="translate(1474,769)" d="m0 0h1l-1 11-9 39-10 33-10 25-4 4-3 4h-116v-2h3v-3l-5 2-4-1v-2l20-10h2v-2l10-5h2v-2l6-3h2v-2l7-4 9-7 5-5 10-9 5-5 1 2-1 2h-2v3l7-5 1 2h46l5-1 2 6 5-2 2-10 3-1 2-13 6-25z" fill="#AB0202"/>
<path transform="translate(1082,619)" d="m0 0h45l3 98v18l-4 142-4 4-10 1h-24l-7-1-6 5-4-1h-21l-1 2-2-3-5 1-5-9-2-3-7-36-4-28 1-3 1 1 2 13v5l3-1 2 7 2-1 2-3 5 2h82l2-34 2-72-1-36-1-3-1-64-41 1z" fill="#C20202"/>
<path transform="translate(1016,752)" d="m0 0h2l3 25v7l-3 9-4 20-4 16-6 22-5 16-10 26-11 23-12 20-13 16-11 11-13 9-15 7-12 4-15 3-24 2h-19l-35-2-26-4-15-3-33-8-24-9-21-11-10-7-11-8-4-3v-2h-2v-2l-4-1-9-8v-2l-4-2-4-4v-2l-4-1-3-6 4 1 12 11 11 9 16 12 16 9 17 8 21 7 38 9 25 4 21 2h57l18-3 21-7 15-8 14-11 10-11 11-16 10-17 10-21 10-27 9-29 8-34 5-26z" fill="#9D9DA0"/>
<path transform="translate(387,607)" d="m0 0h2l1 11 3 3 1 3-1 23-6 84-4 64-6 27-10 23-7 11-9 10-9 8-10 6-12 5-8 2h-16l-11-2-10-5-7-6v-2l-3-1-2-5-5-6-3-10v-12l2-5h2v17l2 2 2-1h61l4-1 1 1h7l8-2v-2l6-2 2-4 6-7 8-17 6-19 4-21 3-53 6-88z" fill="#ABA9B0"/>
<path transform="translate(971,898)" d="m0 0h2l-1 6-9 15-5 2-2 3-9-1h-283l-4-2v-2l-5-2v-2h-2v-2l-4 1-12-11v-1h5l4 4 318 1 5-5z" fill="#020148"/>
<path transform="translate(485,952)" d="m0 0h2l-2 4-10 8-13 7-16 6-16 4-18 2h-36l-28-3-26-5-38-10-19-7v-3l5-1 214-1z" fill="#020201"/>
<path transform="translate(566,777)" d="m0 0 2 2 4 13-1 4-2 1-6 29-7 27-8 25-6 18-4 8-3 7-8 16-5 9-9 14-9 11-5 6-5 2-2 4-15 10-14 6-11 4-18 4-20 2h-20l-21-1-34-5-24-6-30-8-13-5-15-7-12-7-10-7-14-11-11-9-5-5-6-7-5-5-10-11-10-13-4-5-2-5-6-8-3-7-4-6-2-5-3-7-2-6-6-14 1-4 2 7h2l5 10 3 4v2l4-1 4 5 53-1 5-1 1-10 5-17 6-11 8-10 3-2v-3h3l-2 5-4 5 6 2 1 7-9 12-4 8-4 17v16l3 9 5 7-4-2-4-5-6-12h-56l-1 4 4 8 16 20 6 7 1 5 1 3 4 2 5 5 7 8 7 5 5 5 12 9 2 1v2l4 2 19 11 16 7 27 9 30 7 14 3 33 4h41l19-3 15-4 21-9 14-10 10-10 9-12 10-16 12-23 9-23 6-18 7-25 12-54 1-1z" fill="#D8D9D9"/>
<path transform="translate(277,806)" d="m0 0h2v2h17v-2h11l17 2 4-2h37l3 1v7l-7 16-6 9-5 6-5 4-9 3h-7l-4-1-1 1h-61l-4 1-1-3v-13l1-4h-2l2-7 7-10 4-5z" fill="#E8E701"/>
<path transform="translate(1132,268)" d="m0 0h22l5 1v1l-30 3-32 3-16 2-30 3-21 3-18 2-15 2-16 3-29 5-14 3-13 2-13 3-27 6-10 2-18 5-11 2-9 3-22 6-10 3-7 1-7 3-27 8-9 3-28 9-11 4-13 4-7 3-11 3-2 2-15 5-10 4-18 7-12 5-6 2-10 5-19 7-6 4-9 3-16 8-6 2-16 7-16 8-17 8-15 8-9 4-19 10-14 7-9 5-6 3 6 1v1l-7 1h-16l4-3 26-14 27-14 54-27 33-15 34-15 44-18 42-16 37-13 52-17 52-15 64-16 57-12 47-8 41-6 56-6z" fill="#A9A7AD"/>
<path transform="translate(1467,510)" d="m0 0 4 1 1 3h2l5 11 4 12 1 13h2l2 13 4 21 4 36 1 42-1 38-3 39-4 31-4 21-6 28-9 33-9 25-9 21-8 16-6 11-8 12-6 8-4 4h-2l-1 3-13 9-15 9-10 5-17 6-16 5-19 4-24 4-16 2-27 2h-51l-28-2-19-3-24-7-11-5-10-4-16-10-14-11-9-8-3-2v-2h-2v-2h-2l-2-5-4-2-7-9-6-8-5-10-1-3-2-1h2l-2-3 1-4 3 4 10 15 11 12 2 4h-2l5 6 8 7v2l5 2 9 8 5 3v2l5 2 13 8 21 9 25 7 10 2 42 3h35l29-2 31-4 36-7 24-8 19-9 16-10 10-9 9-10 8-13 8-14 10-22 8-21 6-18 7-25 5-22 5-25 5-40 3-42v-63l-3-34-3-20-5-24-5-20-3-11h-3z" fill="#D8D9DA"/>
<path transform="translate(1222,317)" d="m0 0h17l43 1 12 1-4 2h-28l-51 2-43 3-43 4-4 1-21 2-30 4-21 4-28 4-5 2-18 3-38 8-12 3-10 2-5 2-13 3-23 6-13 4-8 2h-6v2l-15 4v1l-7 1-8 3-10 3-27 9-13 4-10 4-7 2-10 4-14 5-12 5-15 5-11 5-13 5-12 5-9 4-13 6-10 3-16 8-16 7-10 5-6 2-1 2-11 4-17 9-9 4-10 5-3 1 2 3-1 3-5-6-6-4-1-2 6 2 30-15 28-13 19-9 36-16 36-15 41-16 44-16 36-12 28-9 52-15 56-14 47-10 50-9 48-7 45-5 38-3z" fill="#AAA8B0"/>
<path transform="translate(136,805)" d="m0 0 2 1h3 86l3 2h4v2h-2l1 4-6 12-5 18-1 6-5 2-54 1-4-5h-3l-4-6-4-8v-2h-2l-2-5h-2l-4-13-1-2z" fill="#E8E701"/>
<path transform="translate(1443,876)" d="m0 0 1 4-4 7h-2l-2 6-7 12-4 3-3-1h-159l-1 1-8-1-4-1-8 1-3-1-1-3 30-7 28-9 10-4 7-3 7 1 5-1v3h-3v2l4-1h112z" fill="#690101"/>
<path transform="translate(1233,575)" d="m0 0h44l21 2 25 5 21 7 23 11 14 9 12 9 15 15 4 5-1 2h-3l-2-4-5-5-5-4v-2l-5-2-20-12-14-7-14-6-22-6-19-3-21-2h-33l-29 2-58 8-62 8-6 3-3 9 37 1v1h-45l2-21 1-4 36-5 54-7 42-6z" fill="#9E9DA1"/>
<path transform="translate(1470,520)" d="m0 0h2l6 18 5 21 4 22 3 23 2 25v63l-3 42-5 40-5 25-7 29-7 24-9 26-8 18-9 19-8 13-10 13-11 11-15 10-23 11-24 8-36 7-31 4-29 2h-35l-42-3-22-5-21-7-16-8-15-9v-2l-5-2-12-10-5-5-10-9-1-4 5 2 11 10 18 13 10 6v3l6 3 12 5 15 7 5 1 22 5 22 2 8 1h65l27-3 25-3 21-4 13-4 12-4 15-6 15-8 12-8 4-2v-2l5-5 7-8 4-6h2l1-5 6-9 7-15 10-24 4-13 5-13 3-11 3-13 3-11 4-18 4-23 2-14 2-15 2-16v-10l1-6 1-23v-18h-1l-1-43-3-38-4-27-6-28-2-8z" fill="#ABA9AF"/>
<path transform="translate(838,1198)" d="m0 0h16l12 6 6 7 4 8 1 4v10l-4 9-6 10-10 14-7 12-2 4h-3l-10-18-11-15-7-14v-15l4-9 5-6 10-6z" fill="#040403"/>
<path transform="translate(1352,679)" d="m0 0 1 3h2l5 15 3 20v13l-4 26-5 19-4 10-3 9-7 14-8 13-14 19-14 14h-2v2l-9 7-15 10-15 8-28 11-14 4-13 2h-7l-4-4v-6h2v-2l18-3 24-8 18-8 17-9 12-9 13-11 10-10 10-13 10-16 9-17 7-19 5-21 3-19v-23l-3-17z" fill="#9D9D9F"/>
<path transform="translate(1122,964)" d="m0 0 7 1 1 1h18l5-2h157l3 1h13l11-1h10l4 1v2l-24 6-30 5-37 4-22 1h-21l-36-2-18-2-24-6-16-6z" fill="#030302"/>
<path transform="translate(1191,799)" d="m0 0h1l1 47 3 1 4-2h79l9-4 2 1v2l5-1-4 5-15 11-25 13-21 8-17 5-24 3v-19l1-50z" fill="#AC0202"/>
<path transform="translate(851,850)" d="m0 0 4 2 3 3 129 1 1 1 3-7h2l-1 7-5 14h-3l-3 3-3-1-3 3-130-1-4-5 8-19z" fill="#000196"/>
<path transform="translate(1020,784)" d="m0 0 2 1 1 15-2-2-6 31-5 17-6 19-6 18-6 15-8 15-7 14-11 16-12 15h-2l-1 3h-2v2l-13 10-15 8-24 8-22 3h-40l-39-3-31-6-28-7-24-8-16-8-12-7-13-9-13-11-11-9-10-10v-2h-2v-2l-4-2-6-9-6-5-6-8v-2h-2l-3-5-8-11-2-5-5-9-8-17 1-3 3 4 10 18 12 17 11 13 14 16v3l1 4 4 1 6 7 5 5 7 6 3 1v2h2v2l4 2 12 9 16 10 21 10 21 7 32 8 29 5 22 2 22 1h19l24-2 15-3 17-6 15-8 11-9 10-10 10-13 9-15 12-23 10-25 5-15 7-25 4-17 4-16 3-14z" fill="#D8D9DA"/>
<path transform="translate(926,616)" d="m0 0 5 1 1 2v7l-11 23-9 19-6 12-11 23-13 27-11 23-8 16-12 25-13 28-14 28-3 3-5-1-1-2v-7l12-25 17-35 11-23 12-25 14-29 13-27 11-23 16-33 2-5z" fill="#9E9EA1"/>
<path transform="translate(589,836)" d="m0 0h2l3 6v3h3l3 7 5 5h7l1-1h121l5 2 1-4 3-1 1 5 2 1-3-9 3-1 7 21-4 4-3 1h-121l-1 2-1-2-5-2v-2l-6-1-6-7-3-1-8-13-6-11z" fill="#000196"/>
<path transform="translate(1201,370)" d="m0 0h69l35 3 43 7 21 5v1h-7l-12-2-7-2-13-2h-11v-2h-16l-29-2h-69l-53 5-9 2-12 2-33 6-22 5-5 2-30 8-25 8-14 5-6 2-8 3-19 7-9 4-17 7-12 6-7 3-16 8-13 6-15 8-8 4-8 3-14 1 3-2 47-24 31-15 19-8 25-10 32-12 30-10 30-8 33-8 38-7 38-5z" fill="#ABA99C"/>
<path transform="translate(1460,829)" d="m0 0 1 4-10 30-6 14-4 4-3 4h-116v-2h3v-3l-5 2-4-1v-2l20-10h2v-2l10-5h2v-2l5-1v2l5 1 1-4h3l1 4 9-1 1 1h64l1 3h2l1-3h6l1-5 4-11 1-7-2-1 5-5z" fill="#900103"/>
<path transform="translate(1158,1067)" d="m0 0h12l4 8 4 12v3h2l2-7 3-9 2-4 6 1 7 3 3 20 4 38h-16l-1-28-11 19-2-1-7-19v-3h-2v13l-1 15-1 5-4 1h-8v-33z" fill="#265306"/>
<path transform="translate(849,1067)" d="m0 0h12l5 12 4 11 4-8 3-12 7 1 7 3 4 30 3 27-1 1h-15v-28h-2l-2 5-8 14-2-1-8-22-2 26-1 7h-12v-33l2-17z" fill="#255306"/>
<path transform="translate(1018,768)" d="m0 0 2 1 1 15-3 9-4 20-4 16-6 22-5 16-10 26-11 23-12 20-13 16-11 11-13 9-15 7-12 4-15 3-24 2h-19l-35-2-26-4-15-3-33-8-24-9-21-11-10-7-11-8-4-3v-2h-2v-2l-4-1-9-8v-2l-4-2-4-4v-2l-4-1-3-6 4 1 12 11 11 9 16 12 16 9 16 8-4 1 5 3 11 4 4 1 9 4 10 2 15 4 9 2 25 5 29 3h54l20-3 16-5 16-8 14-10 5-6h2l2-4 5-6 9-13 4-7 10-19 5-11 6-16 5-15 3-12 3-8 2-6 1-10 3-3 2-10 1-7 1-9 2-7 1-10 1-1 1-7z" fill="#ABA9B0"/>
<path transform="translate(1127,625)" d="m0 0h1l1 7 4 2 1 7 2 74v43l-3 117-1 15-5 5-35 1-4 2-3 9h-4l-1-5-1-18 46-1 4-148v-18l-2-70z" fill="#AAA8AF"/>
<path transform="translate(841,870)" d="m0 0 1 2 3 1v2l5-1 126 1 2-3 4 1 2-3h2l-1 6-7 16-2-1h-6l-1 1-8-1h-123l-1 3h-2l1-8-2-1z" fill="#01007A"/>
<path transform="translate(561,758)" d="m0 0h1v10l-4 26-2 6-3 16-2 9-3 8-3 11-5 16-3 9h-2v6l-3-2v-7l-133-1-2-1v2l-6 2-5 5-3 1v2l-4 3-2-1 17-16 9-12 9-15 2 2-3 7-2 4v3l125 1v-2h3l1-3h2l7-21 8-33z" fill="#BAB746"/>
<path transform="translate(1049,541)" d="m0 0h2v2l-8 7-9 9-1 7v9l2 9 1 22v72l-1 22-6 55-2 13-2 10-1 20h-1l-5-36-1-16 4-26 2-18 3-45v-45l-2-33v-12l11-12 5-6 8-7z" fill="#DB0000"/>
<path transform="translate(604,862)" d="m0 0 3 1 5 6 6 2v2l7 2 124-1 2-4h2l6 16 1 4h-2l-1 2-5-2-113 1-4 2-4-1-4-3h-3l-11-13-9-13z" fill="#01007A"/>
<path transform="translate(564,771)" d="m0 0 2 1 2 14h-2l-1 8-5 24-6 26-3 9-3 12-9 26-9 21-11 21-13 19-12 13-8 7-11 7-19 8-19 5-15 2h-41l-33-4-32-7-18-5-24-8-19-9-14-9-3-2v-2l-5-2-10-8-4-3v-2l-4-2-5-4v-2l-4-2-7-8-5-5-1-3h3l13 13 2 1v2l4 2 16 13 19 12 5 3 1 3 11 5 1 2 5 1 9 3 3 2 11 3 5 1 20 6 23 5 13 2 29 3h30l21-2 27-8 8-4h3v-2l7-4 8-6 2-3h2v-2h2l2-4 8-9 1-3h2l2-5 5-9 6-10 14-32 2-7 6-17 2-7 4-15 4-17 1-3h2l1-16 1-4 1-6 2-11 2-8z" fill="#ABA9AF"/>
<path transform="translate(387,607)" d="m0 0h2v14l-2 23-2 37-1 6-3 44-2 39-3 22-3 14-7 21-1 2h-2l-2 5-5 10-5 6h-2l-1 4-4 2-10 8-16 8-15 4h-11l-13-2-9-2-5-3-7-9-3-10v-12l2-5h2v17l2 2 2-1h61l4-1 1 1h7l8-2v-2l6-2 2-4 6-7 8-17 6-19 4-21 3-53 6-88z" fill="#B9B645"/>
<path transform="translate(1023,799)" d="m0 0 3 2v4l4 2v2l8-1 86-1 1-5h1v15l-2 12-3 1h-79l-5-2-2 3h-2l-2-6h-3l-3-18-2-6z" fill="#DC0000"/>
<path transform="translate(343,566)" d="m0 0h10l153 13 1 2v13l-2-2-4-1-38-3-21-2-73-6h-16l-2 1-2 4h-2v8l-1 3 2 1-10-1-2-3 6-26z" fill="#AAA8B0"/>
<path transform="translate(1449,1071)" d="m0 0 12 1 7 7 3 12v16l-3 13-6 7-20 2-8-5-5-5-1-4v-8l2-11 2-16 4-2v-2h3v-2z" fill="#265307"/>
<path transform="translate(995,1070)" d="m0 0h14l1 26v28l-12 4-10-15-11-22v36l-15-1-1-18v-20l1-17h16l9 17 7 14v2h2l-1-7z" fill="#2B570B"/>
<path transform="translate(756,562)" d="m0 0 5 1 3 9-1 3-14 3-24 7-30 8-28 8-40 11-6 2-1 9-2 2-6-22 8-3 79-22z" fill="#9D9DA1"/>
<path transform="translate(285,1070)" d="m0 0h14v54l-7 3-5-1-9-13-11-22v36l-15-1-1-26 1-29h16l9 17 6 11v3h2z" fill="#285409"/>
<path transform="translate(593,1068)" d="m0 0h18l10 7 2 5 1 9-2 7-10 7-4 1 4 6v2h2v3h2l7 11v2l-8 3-5-1-10-16-1 16h-13l-3-34-1-5v-11l4-5 1-3h2l1-3z" fill="#275408"/>
<path transform="translate(461,1070)" d="m0 0h13l1 32v21l-10 5-5-5-7-10-10-22v35l-5 1-10-1-1-10v-26l1-19h15l3 4 5 10 8 15 1 3z" fill="#265307"/>
<path transform="translate(914,960)" d="m0 0m-174-1h7l6 2 10 1 4 1 2-1 9-1h134l1 2h-2v3l-13 5-18 4-7 1h-57l-28-3-27-5-21-5v-2l-3-1z" fill="#030303"/>
<path transform="translate(1286,1070)" d="m0 0h12l1 1v53l-7 3-5-1-9-13-10-21-1-1v36l-15-1v-43l1-12h15l7 12 10 20z" fill="#265306"/>
<path transform="translate(654,1070)" d="m0 0h15l9 36 5 21v3h-14l-6-23v-2l-10 2h-4l-3 21-2 4-15 1 2-10 3-13 3-8 4-16 4-14 1-1z" fill="#275308"/>
<path transform="translate(1126,824)" d="m0 0h1v22l-1 31-4 4-10 1h-24l-7-1-6 5-4-1h-21l-1 2-2-3-5 1-5-9-2-3-6-31v-4h2l2 14 3 10 1 1h81l5-1 1-7z" fill="#900102"/>
<path transform="translate(934,1070)" d="m0 0h9l11 46 2 9v5h-13l-5-18-2-6-13 2-4 23-1 1-15 1 1-8 13-46 2-8z" fill="#265307"/>
<path transform="translate(400,1070)" d="m0 0h9l8 36 5 21v3h-14l-6-24-14 1-2 16-2 9h-15l1-10 3-9 7-25 5-17z" fill="#275308"/>
<path transform="translate(1044,1070)" d="m0 0h9l13 55v5h-13l-3-9-4-15-14 1-1 12-2 12-1 1-15 1 1-8 6-23 7-23 2-8z" fill="#265307"/>
<path transform="translate(1100,1069)" d="m0 0h5l1 4v7l-18 9-2 12v10l9 2v-26l14 3v36l-6 1-20 1-11-5-4-14-1-6v-8l3-16 8-8z" fill="#265307"/>
<path transform="translate(1321,813)" d="m0 0v3l-7 9-9 10-8 8-9 2v-3l-9 4h-80l-4 2v-2l-3 1v-22h1v6h2v-2h3v2l3-1 95-1 7-1-1 3h-2l1 2 9-8h2v-3h2l2-4h2l1-4z" fill="#C10202"/>
<path transform="translate(672,629)" d="m0 0 5 2 3 5 9 27 4 11 4 12 4 10 6 19 4 10 2 9 4 9 3 10 3 7 4 13 12 35 5 15 3 10 3 5 3 12 4 10 4 12 5 16v2h-6l-4-10-15-43-12-36-12-34-12-36-19-55-15-44z" fill="#D3D4D6"/>
<path transform="translate(244,797)" d="m0 0h3l-2 5-4 5 6 2 1 7-9 12-4 8-4 17v16l3 9 5 7-4-2-4-5-6-12h-56l-1 4 4 8v3l-5-6-7-10-6-11-8-16-4-9 1-4 2 7h2l5 10 3 4v2l4-1 4 5 53-1 5-1 1-10 5-17 6-11 8-10 3-2z" fill="#BAB747"/>
<path transform="translate(480,1069)" d="m0 0 11 1 10 4 4 2 7 11 1 1v15l-1 11-7 11-4 3-17 5-3-1-2-26z" fill="#265307"/>
<path transform="translate(715,1069)" d="m0 0 16 1-1 8-10 35-6 13-2 1-21 2-9-39-1-10v-9l16-1 4 34v10l5-2 5-20z" fill="#265307"/>
<path transform="translate(191,1069)" d="m0 0 15 1-1 8-10 35-6 13-2 1-21 2-9-38-1-10v-10l16-1 4 34v10l5-2 4-16 5-25z" fill="#265307"/>
<path transform="translate(389,614)" d="m0 0 7 2 2 4v21l-4 57-4 58-1 25-1 11-5 24-4 13-5 13-5 8-7 11-13 13-3 1v2l-12 7-16 6-11 2h-9l-13-2-9-4-8-6-4-5-4-8 1-3 4 3 1 4 5 5 11 7 6 2 8 1h16l16-5 11-6 10-8 8-8 9-14 10-23 6-27 5-76 6-86v-9l-3-5z" fill="#D9DADB"/>
<path transform="translate(1248,586)" d="m0 0h33l28 3 16 3 20 6 19 8 16 9 9 6 7 4v2l4 2 4 5 5 5 5 2 9 14 8 19 1 6-2-2-2-5-3-3-4-8-6-10v-2l-4-2-1-3-4-2-3-5-3-1-5-5-5-4-2-1v-2l-5-2-6-4-26-13-20-7-19-4-22-3-14-1h-27l-27 2-63 9-25 3-18 2-17 3-4 4-2 4-4-1 4-10 6-3 31-4 40-5 49-7z" fill="#D8D8D9"/>
<path transform="translate(582,562)" d="m0 0v3l-4 6-1 8 2 16 1 18v61l-2 32-2 12-1 3-1 23-3 24-2 3 1 7 1 6h-2l-6-18-1-9 5-39 3-37 1-18v-63l-1-21 5-9z" fill="#0001BC"/>
<path transform="translate(736,1071)" d="m0 0 11 1 20 2 2 1v10l-18 1v6h19v11l-16 4-1 6h18l1 15-3 1h-30l-3-23z" fill="#285508"/>
<path transform="translate(116,1072)" d="m0 0h11l20 2 2 1v10l-18 1v5l18 1v11l-16 4-1 6h18l1 2v13l-1 1h-32l-2-15z" fill="#275408"/>
<path transform="translate(211,1071)" d="m0 0 11 1 20 2 2 1v10l-18 1v6h19v11l-12 3h-5v7h18l1 15-1 1h-32l-2-17-1-27z" fill="#265307"/>
<path transform="translate(1114,1072)" d="m0 0h11l20 2 2 1v10l-18 1v5l18 1v11l-16 4-1 6h18l1 16h-33l-2-20z" fill="#265307"/>
<path transform="translate(1124,839)" d="m0 0h1v16l-2 7-6 2h-81l-5-17 1-4v2l3-1 1 1h84l3-2z" fill="#AD0202"/>
<path transform="translate(1211,1072)" d="m0 0h11l20 2 2 1 1 9-1 1-15 1-2 1v4l18 1v11l-16 4-1 6h18l1 15-3 1h-30l-2-19z" fill="#265306"/>
<path transform="translate(1343,656)" d="m0 0h2l5 9 2 3v3h2l2 3v4h2l5 11 3 17 1 6v22l-4 26-4 13-4 14-6 12-4 10-16 24-12 14-11 11-14 11-14 9-16 8-12 5-17 6-14 4-7 1h-14l-5-5-2-7v-3h8l-2 1 2 8 2 1 13-1 14-3 18-6 17-7 17-9 10-7 10-8h2v-2l8-7 8-8 13-18 12-20 5-11 3-9 5-16 4-20 2-15v-13l-3-20-4-12v-3h-2v-3h-2l-6-15-3-5z" fill="#D8D9DA"/>
<path transform="translate(1236,582)" d="m0 0h38l26 1v2h14l6 1 7 1 4 2 10 3 10 4 6 2 10 5 1 2h3l-1-2 5 2 17 12 16 16 4 5-1 2h-3l-2-4-5-5-5-4v-2l-5-2-20-12-14-7-14-6-22-6-19-3-21-2h-33l-29 2-58 8-62 8-6 3-3 9 37 1v1h-45l2-21 1-4 4 1h-3l-1 13-1 9h2l1-9 5-6 5-2 36-4 42-6 13-2 12-1 2-1 16-2z" fill="#ABA9AF"/>
<path transform="translate(1395,1071)" d="m0 0h18l4 1 5 13 1 5-8 3-5-4-4-2h-5l-4 2-1 18 4 10 1 1h5l6-9 10 1-3 15-8 5-5 2-8-1-8-4-8-10-1-7v-22l3-7z" fill="#265307"/>
<path transform="translate(1410,803)" d="m0 0 1 4 5 1h49l-1 10-1 3-2 1-3 10-5 3-2-6-5 1h-42l-5-2-5 4h-2v-3h2l3-9 2-1 1-3 5-5z" fill="#DB0000"/>
<path transform="translate(1129,628)" d="m0 0 5 1 4 5 2 68v73l-2 65-2 53-5 5-4 1-33 1-3 4v2l-6 1 2-9 5-3 35-1 4-4 1-15 3-117v-43l-2-74-1-7-4-1z" fill="#D9DADB"/>
<path transform="translate(927,610)" d="m0 0h3l5 5 2 3v8l-8 17-8 16-14 29-8 17-8 16-9 20-8 16-10 21-5 10-11 23-17 35-6 12-3 2h-6l-4-4-2-7h3l2-4 1 7h5l5-7 10-22 8-16 16-33 11-23 8-16 8-18 21-42 3-7 11-23 9-19v-9h-5l-2 1 2-6z" fill="#D8D9DA"/>
<path transform="translate(1222,317)" d="m0 0h17l43 1 12 1-4 2h-28l-51 2-43 3-43 4-4 1-21 2-30 4-21 4-28 4-5 2-12 2h-5l-1-5 49-9 46-7 43-5 48-4z" fill="#ABA9B1"/>
<path transform="translate(388,621)" d="m0 0 2 2v13l-2 17-2 34-2 22v15l-1 2-2 37v12l-2 20-4 16-2 9-6 17-8 14-3 5h-2v2h-2l-2 4-15 12-13 6-14 3h-10l-16-3-8-5v-2l-2-1 10 2 10 1h11l15-4 16-8 11-9 3-1 1-3 5-5 3-5 6-11h2l3-11 5-15 4-23 2-29 2-37 2-27 1-6 3-53z" fill="#9D9D9B"/>
<path transform="translate(1190,819)" d="m0 0h1v43l3 1 1 4 3-4h39l17 2 1-3 7 1 14-8 5-2 2-3 6-2-5 5-10 7-23 12-21 8-17 5-24 3v-19z" fill="#900102"/>
<path transform="translate(224,777)" d="m0 0 20 2 84 10 3 2-6 11-17-3-43-5-3-1-25-2-6 1v2l2 1-4 1-7-1-1-1 1-13z" fill="#ABA9B1"/>
<path transform="translate(1474,769)" d="m0 0h1l-1 11-9 39-3 10h-2l-1 4-4 6v7l-3 1h-67l-1-3-7 4h-2v-3l4-1 2-5 6-5 4-7 4-2-1 4h-2v3l7-5 1 2h46l5-1 2 6 5-2 2-10 3-1 2-13 6-25z" fill="#C00303"/>
<path transform="translate(1352,679)" d="m0 0 1 3h2l5 15 3 20v13l-4 26-5 19-4 10-3 9-7 14-8 13-14 19-14 14h-2v2l-9 7-15 10-15 8-28 11-14 4-13 2h-7l-4-4v-6h2v-2h6l-4 3 2 4 18-2 15-5 22-8 16-8 13-9 10-7 12-12 3-1v-2h2l2-5 7-8 7-11 2-5 6-8 8-18 2-10 2-3 3-9 4-27 1-12v-10l-2 19-1 5h-1l1-14v-23l-3-17z" fill="#ABA9AF"/>
<path transform="translate(544,1070)" d="m0 0h32l1 2 1 13h-12l3 42v5h-17v-38l1-8h-8l-1-1z" fill="#2B560A"/>
<path transform="translate(878,562)" d="m0 0 8 1 80 21 29 8v5h-2l-1 4-5-1-18-5-36-9-18-5-21-6h-7l-4 4-2 3-5-1-4-2 1-6z" fill="#9F9EA2"/>
<path transform="translate(1304,1070)" d="m0 0h32l1 3v12l-11 1 2 34v12h-16v-37l1-9h-9z" fill="#275308"/>
<path transform="translate(304,1070)" d="m0 0h32l1 15h-12l2 23 1 24h-16v-46h-8z" fill="#265307"/>
<path transform="translate(777,1069)" d="m0 0h12l1 34 2 13 21 3 1 13h-35l-3-13v-35z" fill="#2A560A"/>
<path transform="translate(926,616)" d="m0 0 5 1 1 2v7l-11 23-9 19-6 12-11 23-13 27-11 23-8 16-12 25-13 28-14 28-3 3-5-1-1-2v-7l9-19 1 3-6 13-2 5 5-1 2-5 8-15 1-7 5-6 11-22 1-5 3-5 4-9 3-5 6-12 3-8 4-6 2-6 5-10 2-7 3 1 1-9 3-3 2-7 2-1 5-11 1-6 4-4 5-13h2l1-5 6-12 3-5 6-13 1-9h-3l-1 4-1-3z" fill="#AAA8B0"/>
<path transform="translate(1043,400)" d="m0 0 3 1-5 5-25 8-14 5-6 2-8 3-19 7-9 4-17 7-12 6-7 3-16 8-13 6-15 8-8 4-8 3-14 1 3-2 47-24 31-15 19-8 25-10 15-4 18-7 15-5 17-5z" fill="#ADAB91"/>
<path transform="translate(344,568)" d="m0 0h10l21 2 17 1 7 1 39 3 47 4 19 2 1 1v5l-17-1-1-1-12-1h-14l-17-2-9-1-31-2-31-3-24-1-2 4-5 15h2l-1 2-5-2 2-12z" fill="#9C9C9F"/>
<path transform="translate(1124,874)" d="m0 0 2 3v6l-1 1h-46l1 2 1 21h5v1h-6l-1 3-2-1-3-3h-14l-4-1-1 2-4-4v-3l-5-2-8-17-1-7 6 9 4-1 2 3 3-2h19l5 1 5-5 7 1h24l12-1z" fill="#6A0101"/>
<path transform="translate(1024,575)" d="m0 0h2l2 18-1 13 4 1v56l-1 23-1 17-1 16-2 7-1 16-3 20v23h-1l-4-33 1-11 3-21 2-18 3-45v-45z" fill="#A90102"/>
<path transform="translate(680,443)" d="m0 0m-2 1 2 1 1 3-6 4-11 5-10 3-16 8-16 7-10 5-6 2-1 2-11 4-17 9-9 4-10 5-3 1 2 3-1 3-5-6-6-4-1-2 6 2 30-15 28-13 19-9 36-16z" fill="#ABA9AE"/>
<path transform="translate(353,579)" d="m0 0h16l87 7 32 3 13 1 5 2-1 4-22-2-47-4-71-6h-9l-3 2-3 9-2 2-2-1 1-11 2-1 2-4z" fill="#D9DADB"/>
<path transform="translate(763,570)" d="m0 0 3 3 1 4-5 4-3-1-25 7-19 5-24 7-8 2-47 13-9 2-1 7 3 2-10 1 2-12 10-4 28-8 26-7 35-10 37-10 6-1z" fill="#D8D9DA"/>
<path transform="translate(845,1212)" d="m0 0 9 2 5 4 3 7-1 8-4 6-9 4-9-2-5-5-3-7 2-9 5-5z" fill="#F7F7F7"/>
<path transform="translate(756,562)" d="m0 0 5 1 3 9-1 3-14 3-24 7-30 8-28 8-40 11-6 2-1 9-2 2-3-11 1-3v2h2v-2l5-2 2 1v-2l8-3 23-6 21-6 20-6 8-2 18-5 20-6 18-4-2-6h-5z" fill="#ABA9B1"/>
<path transform="translate(1131,735)" d="m0 0h1v27l-2 63v13l-2 49-3 4-34 1-5 2-4 5-2-1-1-14 46-1 2-78 1-4 2-64z" fill="#9C9C9F"/>
<path transform="translate(1075,260)" d="m0 0h84l45 3 44 5v1l-29-1h-61l-43 2-48 4-49 6-3-1 3-2 35-4 16-2 35-3 33-2 57-1-25-2-20-1h-61l-26 1h-22v-1z" fill="#D00000"/>
<path transform="translate(1031,559)" d="m0 0v3l-2 6 2 2v12l2 39 1 41-1 5v20l-3 36-3 22-2 10-3 19h-1v-12l3-20 1-16 2-7 2-25v-16l1-15v-55l-1-2h-2v-13l-1-6v-12h-2v-8z" fill="#C30303"/>
<path transform="translate(225,779)" d="m0 0 21 2 11 2 42 4 9 2 20 2-2 7-1-3-6 1-14-2-30-3-39-5-10 5v2l2 1-5-1 1-13z" fill="#9C9C9F"/>
<path transform="translate(888,568)" d="m0 0 4 1v2l11 1v2h9l8 3 4 1 2-1 6 3 9 2 3 1 8 2 10 2v2l8 1 13 3 4 2 6 1v-3l-12-3 4-1 10 3v5h-2l-1 4-5-1-18-5-36-9-18-5-21-6h-7l-4 4-2 3-5-1-4-2 1-6 1 4h4l1-3z" fill="#ABA9B1"/>
<path transform="translate(761,1279)" d="m0 0 5 5 4 6 4 3 6 2 1 2v11l5 2 3 2 1 16-6-2-10-8-7-10-5-11-1-5z" fill="#F6F6F5"/>
<path transform="translate(571,577)" d="m0 0h1l1 9 1 23 1 6v72h-2v40l-2 4-1-5-1 5v11l-2 6-1 9-2 7-2-2 1-12 4-32 3-37 1-18v-63l-1-21z" fill="#0C0C76"/>
<path transform="translate(887,574)" d="m0 0h7l32 9 43 11 18 5 5 1 2-3-1 12h-5l4-1-1-3-44-11-22-6-31-8-8 1-3 3-3-2 5-7z" fill="#D8D9DA"/>
<path transform="translate(1469,1084)" d="m0 0 3 1 3 12v18l-1 6 6 1 2 1v8l-6 2-6-3-4 4-20 2-6-3-6-6 1-3 7 4 20-2 5-6 3-13v-16z" fill="#D4D5D1"/>
<path transform="translate(240,807)" d="m0 0 7 2 1 7-9 12-4 8-4 17v18l-4-4-1-4-1-1v-25l4-14h2l2-8 2-3h2l1-3h2z" fill="#AAA8B0"/>
<path transform="translate(205,1074)" d="m0 0 1 3h5l-11 40-7 16-10 2-13 1-1-7 1-1 19-2 3-9 4-11z" fill="#D5D6D3"/>
<path transform="translate(730,1074)" d="m0 0 1 3h4l-1 8-10 35-7 14-22 2-1-7 1-1 19-2 3-9 4-11z" fill="#D5D5D3"/>
<path transform="translate(1301,467)" d="m0 0h37l28 2 26 4 26 6 21 7 11 6 8 5-2 2-7-5-16-8-21-6-22-5-10-2-30-3h-64l-25 2-31 4-20 3-39 9h-6l4-2 30-7 41-7 25-3z" fill="#D00000"/>
<path transform="translate(866,733)" d="m0 0 1 4-21 43-11 23-14 29-8 17h-2l-5-14v-4h2l1 2 1-5h-2v-3h3l1 2 3-4h2l1 2h2l2-5 3-3 8-16 2-6h2l3-9 6-12 5-11 9-19z" fill="#0101B6"/>
<path transform="translate(691,1273)" d="m0 0h8l6 4 2 3v9l-3 5-8 3-7-2-5-6v-9l4-5z" fill="#060605"/>
<path transform="translate(268,865)" d="m0 0h28l7 1 9-1h9v3l-2 1 1 2-13 4-4 1h-11l-13-2-8-3 1-2-5-1z" fill="#6E6D03"/>
<path transform="translate(923,1275)" d="m0 0h9l5 4 2 3v8l-4 6-4 2h-8l-6-5-2-7 2-6 4-4z" fill="#050504"/>
<path transform="translate(237,790)" d="m0 0 25 2 13 2 40 5 7 1 1 2-3 4-17-2v-2l-16-1-30-4h-9l-15-2-2-1v-2z" fill="#DBDBDC"/>
<path transform="translate(1113,1071)" d="m0 0h6v1h-5v34l-1 27-4 1-23 1-10-5-2-6 11 3 24-1v-36h1v7h3z" fill="#D3D4CF"/>
<path transform="translate(244,804)" d="m0 0 5 1 5 4v6l-8 10-1 3h-2l-2 6-5 16-1 14 3 13 3 7-4-1-5-7-2-7v-16l4-17 6-11 7-9v-7h-6l2-4z" fill="#D9DADB"/>
<path transform="translate(336,1074)" d="m0 0 1 3h3l1 7v8h-12l2 23 1 14v10h-16v-6l-4-1h16l-3-39v-8h12z" fill="#D2D2CD"/>
<path transform="translate(577,1077)" d="m0 0h3l1 2v13l-10 1 1 27 1 19h-16l-1-1v-5l-3-1h16l-1-5-2-29v-13h12z" fill="#D2D3CD"/>
<path transform="translate(1015,511)" d="m0 0 3 2 4 7 5 10 4 20v7l2 1-9 10h-1l-5-38-3-13-1-4z" fill="#D7D8D9"/>
<path transform="translate(1337,1077)" d="m0 0h3l1 7v8l-11 1 2 34v12h-16v-6l-4-1h16l-3-46 1-1h11z" fill="#D2D2CC"/>
<path transform="translate(1448,1083)" d="m0 0 5 1 4 3v18l-2 8-1 1h-10l-2-7 1-13 1-7z" fill="#F7F7F5"/>
<path transform="translate(343,566)" d="m0 0h10l153 13 1 2v13l-2-2-1-10-19-2-59-5-27-2-7-1-17-1-21-2-10-1v5l-3 9-1 9-2 3 10 2v1l-10-1-2-3 6-26z" fill="#BBB848"/>
<path transform="translate(513,1090)" d="m0 0 3 4 1 2v16l-1 9-7 11-3 3-15 4-6 1-2-6 1-2 19-6 8-12z" fill="#D4D5D1"/>
<path transform="translate(766,334)" d="m0 0h5l-3 2-55 18-42 15-46 18-38 16-12 5-2-1 8-4h3v-2l7-3 29-12 2-2 8-2 14-5h3v-2l10-3 12-5 13-5 6-2 20-7 12-4h2v-2l10-2 1-1h5v-2l12-3z" fill="#CA0000"/>
<path transform="translate(388,621)" d="m0 0 2 2v13l-2 17-2 34-2 22v15l-1 2-2 37v12l-2 20-3 12-3-1 2-14 3-22 3-56 2-27 1-6 3-53z" fill="#9C9C9F"/>
<path transform="translate(1244,1075)" d="m0 0h1v6l3 1 1 9-3 1v7h3v11l-3 2v1h-18v-6l9-3 8-1v-11h-18l-1-5 3-2 15-1z" fill="#D0D0CC"/>
<path transform="translate(769,1077)" d="m0 0 1 4 3 1 1 7-1 3h-2v7h3v11l-3 2v1h-18v-6l9-3 8-1v-11h-19v-6l3-1h15z" fill="#D2D2CE"/>
<path transform="translate(1043,400)" d="m0 0 3 1-5 5-25 8-14 5-6 2-8 3-19 7-5 2-1-5 24-9 21-8 15-5 17-5z" fill="#A8A6AD"/>
<path transform="translate(149,1081)" d="m0 0h3l1 2v9h-3v7h3v11l-3 2v1h-18v-6l9-3 8-1v-11h-18l-1-4 1-2 3-1h15z" fill="#CFD0CB"/>
<path transform="translate(1147,1081)" d="m0 0 4 2v9h-3v7h3v11l-3 2v1h-18v-6l5-2 12-2v-11h-18l-1-4 3-3h16z" fill="#CFD0CD"/>
<path transform="translate(1106,1074)" d="m0 0 1 2 3 1v10l-5 2-8-1-2-1v26l-9-2-1-10 2-12 10-6 9-3z" fill="#CDCDC4"/>
<path transform="translate(1228,574)" d="m0 0h51l21 2 21 4 10 3 9 1 4 3v2l-5-1-20-6-21-4-21-2h-44l-16 1-64 9-40 5h-7l2-2 42-5 7-2 46-5 11-2z" fill="#A30102"/>
<path transform="translate(400,1105)" d="m0 0 3 1 1 7-12 1-1 11-2 13-1 1-16 1 1-6-5-1 1-4v3h15l3-21 1-4z" fill="#D3D3D0"/>
<path transform="translate(1214,613)" d="m0 0h8l-3 2-3 1-20 2-2 120-1 45-1 16h-1v-41l2-120 2-21 7-2z" fill="#D70000"/>
<path transform="translate(1044,1105)" d="m0 0 3 1 1 7-11 2-4 23-1 1-16 1 1-6-3-2 14-1 4-24z" fill="#D4D4CF"/>
<path transform="translate(935,1105)" d="m0 0 3 3 1 6h-7l-5 1-4 23-1 1-15 1-1-2 1-4-2-2 13-1 4-23 5-2z" fill="#D4D5D1"/>
<path transform="translate(1016,522)" d="m0 0 2 3 4 26 3 28 2 33v45l-2 30-2 3v-15l1-26v-33l-2-37-3-31-3-17z" fill="#0001A3"/>
<path transform="translate(661,1105)" d="m0 0h2l2 8-12 1-3 21-2 4-15 1 1-7-3-1 13-1 5-24z" fill="#D3D4D0"/>
<path transform="translate(1298,1070)" d="m0 0h2v7h3v-7h1l-1 61-7 3-5-1-3-4v-2l11-3z" fill="#D0D1CE"/>
<path transform="translate(1016,752)" d="m0 0h2l1 16-1 1-1 7-1 1-2 15-2 8v7l-2 6-1 7-3 1-1 8-3 1-2 2 1-7 8-34 5-26z" fill="#A1A0A5"/>
<path transform="translate(387,607)" d="m0 0h2v14l-2 23-2 37-1 6-3 44-2 39-3 22-2 6h-1l1-10 2-11 3-53 6-88z" fill="#BBB848"/>
<path transform="translate(490,1084)" d="m0 0 10 3 2 4v15l-5 8-1 3-4 1-1-1-1-17z" fill="#D2D3C5"/>
<path transform="translate(1082,619)" d="m0 0h45l3 98v18l-2 70h-1v-43l1-39-1-36-1-3-1-64-41 1z" fill="#B80101"/>
<path transform="translate(1024,575)" d="m0 0h2l2 18 1 77-1 13-2 15-3 28-3 22-1 6-2-2 1-11 3-21 2-18 3-45v-45z" fill="#8D0406"/>
<path transform="translate(1131,735)" d="m0 0h1v27l-2 63v13l-2 44-2 1v-37l1-41 1-4 2-64z" fill="#9F9FA2"/>
<path transform="translate(474,1072)" d="m0 0h1l1 5h2l1 29h1v18l-2 7-7 3-5-1-3-4 1-2 10-4z" fill="#D1D1C8"/>
<path transform="translate(569,725)" d="m0 0 3 3 2-1v17l-3 24-2 3 1 7 1 6h-2l-6-18 1-8 1-1 2-12 1-7z" fill="#0001BD"/>
<path transform="translate(1153,1106)" d="m0 0h1v28l-1 2h-32l-1-1v-6h29l-1-15h1v6h3z" fill="#D3D4CE"/>
<path transform="translate(299,1077)" d="m0 0h3l1 8v46l-10 4-6-7 1-2 6-1 5-1z" fill="#D3D4D4"/>
<path transform="translate(1201,1080)" d="m0 0h3l2 12 5 43v4h-16v-6l-4-1h16l-2-12-4-34z" fill="#D1D2CE"/>
<path transform="translate(224,777)" d="m0 0 20 2 84 10 3 2-6 11h-2l2-4 3-7h-11l-11-1-7-2-49-5-4-1-13-1-8-1-1 13 9 1-1 2-10-1-1-1 1-13z" fill="#BBB848"/>
<path transform="translate(813,1122)" d="m0 0 1 4h3v13l-3 1h-30l-2-1v-6h-4l1-3v2l34-1z" fill="#D3D4C4"/>
<path transform="translate(1420,1115)" d="m0 0 6 2-1 5-3 11-12 6-9-1-8-5-4-5 1-2 8 4 8 1 12-6z" fill="#D4D5D2"/>
<path transform="translate(1401,1086)" d="m0 0 7 1 6 4 2 1 7-2 1-2 3 6v3l-8 3-5-4-4-2h-5l-4 4-1 17-2 1-3-9 1-14 1-4z" fill="#D3D4CE"/>
<path transform="translate(937,582)" d="m0 0 7 1 8 2 10 2v2l8 1 13 3 4 2 6 1v-3l-12-3 4-1 10 3v5h-2l-1 4-5-1-18-5-31-8-2-1v-2l-2-1z" fill="#AAA8B0"/>
<path transform="translate(892,1079)" d="m0 0 3 2 1 3 6 54-1 1h-15v-6l-4-1 15-1-5-44z" fill="#D1D1CD"/>
<path transform="translate(859,1099)" d="m0 0 2 1 3 11-1 5-1 21-1 3-3 1h-9l-1-1v-5l-4-1v-30h1v29h12l1-21z" fill="#CCCCBC"/>
<path transform="translate(1470,524)" d="m0 0 2 4 6 27 4 25 3 29 1 16v44l-1 15h-1l-1-59-1-24-2-18-1-2-1-13-1-2-2-14-2-8-1-2-2-13z" fill="#BB0101"/>
<path transform="translate(1009,1077)" d="m0 0 4 1 1 50-1 5-1-2-7 3-4-1-3-5 8-4h4l-1-28z" fill="#D7D8D6"/>
<path transform="translate(1246,1116)" d="m0 0 4 4 1 9v6l-1 1h-31l-1-1v-6l28-1z" fill="#D7D8D7"/>
<path transform="translate(771,1119)" d="m0 0 4 1 1 16h-33l-1-7 29-1z" fill="#D8D9D7"/>
<path transform="translate(246,1119)" d="m0 0 4 1 1 15-1 1h-32l-1-7 29-1z" fill="#D7D8D8"/>
<path transform="translate(152,1119)" d="m0 0h2l1 16-1 1h-30l-2-1-1-5 1-1 28-1 1-8z" fill="#D8D9DA"/>
<path transform="translate(235,812)" d="m0 0h7v5l-6 8-5 12-2 7-1 4v10l1 4-2 2-2-2v-25l4-14h2l2-8z" fill="#9C9C9F"/>
<path transform="translate(266,1090)" d="m0 0 3 3 3 6-1 6v29l-15-1v-6l-4-1h11l4 1z" fill="#D2D2CD"/>
<path transform="translate(410,1076)" d="m0 0 3 2 11 46 2 12-1 1h-13l-1-6-3-1h14l-12-50z" fill="#CECEC3"/>
<path transform="translate(442,1090)" d="m0 0 2 1 3 9v34l-16-1v-5l-3-2h14z" fill="#D1D2C9"/>
<path transform="translate(976,1090)" d="m0 0 3 3 3 7h-2l1 4v29h-15v-6l-4-1h12l3 1z" fill="#D2D2CA"/>
<path transform="translate(728,568)" d="m0 0h5l-2 2-86 24-29 8h-5l2-2 21-6 23-6 13-4 17-5 8-2 14-4 16-4z" fill="#0001BB"/>
<path transform="translate(1266,1090)" d="m0 0h2l3 6 1 37-3 1-13-1v-5l-4-2h11l4 1z" fill="#D1D1C9"/>
<path transform="translate(944,1076)" d="m0 0 3 1 8 32 6 27-1 1h-13l-2-5-2-2h13l-11-47z" fill="#D2D2D1"/>
<path transform="translate(1054,1077)" d="m0 0 3 1 7 28 6 26v5h-14l-1-5-3-1 1-2 13 1-12-51z" fill="#D0D0CC"/>
<path transform="translate(671,1077)" d="m0 0h2l5 18 9 39v3h-14l-1-6-3-1h14l-10-40-2-9z" fill="#D2D3D1"/>
<path transform="translate(1168,1100)" d="m0 0h2l3 10-2 26-1 4-5 1h-7l-1-5v-2l9-1z" fill="#D2D3CD"/>
<path transform="translate(909,598)" d="m0 0 5 1 15 7-2 6-17 35-11 23-12 25-3 5h-1l1-7 4-6 6-12 2-7h2l3-9 8-16 10-21 6-12v-3l-16-8z" fill="#0001BC"/>
<path transform="translate(604,1077)" d="m0 0 4 1 2 1 1 4v7l-5 6h-8l-1-2v-16z" fill="#D0D0CC"/>
<path transform="translate(558,515)" d="m0 0 3 3 6 14 3 9 4 24 1 3-2 7-3 4-2-13-4-28-3-15-3-6z" fill="#AEAC8A"/>
<path transform="translate(1487,622)" d="m0 0h1v64l-1 23-2 9-1 1-3 25h-1l1-17 3-36 1-22 1-1z" fill="#A1A1A5"/>
<path transform="translate(1120,380)" d="m0 0h7l-4 2-26 5-33 8-24 7-22 7-15 5-19 7-4-1 19-7 8-3 30-10 30-8 33-8z" fill="#BBB848"/>
<path transform="translate(571,577)" d="m0 0h1l1 9 1 23 1 6v72h-3v-40l-1-47-1-21z" fill="#080878"/>
<path transform="translate(561,518)" d="m0 0 6 5 6 12 4 21 1 8 1 2-4 6h-2l1-6-1-1-4-24-8-21z" fill="#D8D9DA"/>
<path transform="translate(1031,559)" d="m0 0v3l-2 6 2 2v12l1 18v21h-1l-1-13-1-2h-2v-13l-1-6v-12h-2v-8z" fill="#C10202"/>
<path transform="translate(693,336)" d="m0 0 3 1-6 4-8 2-12 4-14 5-10 4-21 8-10 5-10 3-9 4-4 2h-5l2-2 27-11 28-11 30-11z" fill="#C20001"/>
<path transform="translate(623,1081)" d="m0 0h2l3 11-1 8-2 4-10 6h-2l-1 2-4-6v-2l10-6 4-4 1-8z" fill="#D4D5D1"/>
<path transform="translate(1375,318)" d="m0 0h8l41 7 30 6v1l-11-1-42-6-34-4v-1h13l-5-1z" fill="#0202B9"/>
<path transform="translate(1028,606)" d="m0 0 3 1v56l-1 15-1 5h-1z" fill="#AD0202"/>
<path transform="translate(902,280)" d="m0 0h5l-3 2-19 4-16 3-6 2-6 1-9 2-12 3-17 4-12 3-18 4 1-2 42-11 49-11z" fill="#CA0001"/>
<path transform="translate(245,1095)" d="m0 0 1 4 3 1v10l-3 2v1h-18v-7l14-3h3z" fill="#D2D2CD"/>
<path transform="translate(1448,1083)" d="m0 0 5 1 4 3v5l-5-1-3 3-2 14v6l-4-1-1-12 2-14z" fill="#D3D3CD"/>
<path transform="translate(1244,1075)" d="m0 0h1v6l3 1 1 9-3 1v7h-1v-7h-18l-1-5 3-2 15-1z" fill="#CDCDC0"/>
<path transform="translate(561,758)" d="m0 0h1v10l-4 26-2 6-3 16-2 9-3 8-3 11-2 6-1-2-2-1 7-21 8-33z" fill="#BBB848"/>
<path transform="translate(769,1077)" d="m0 0 1 4 3 1 1 7-1 3h-2v7h-1v-7h-19v-6l3-1h15z" fill="#CDCDC1"/>
<path transform="translate(1337,1120)" d="m0 0h7l5 3-1 7-4 14-2-1-4-12-2-4z" fill="#2C540F"/>
<path transform="translate(1147,1081)" d="m0 0 4 2v9h-3v6h-1v-6h-18l-1-4 3-3h16z" fill="#D0D1C6"/>
<path transform="translate(149,1081)" d="m0 0h3l1 2v9h-3v6h-1v-6h-18l-1-4 1-2 3-1h15z" fill="#CFD0C6"/>
<path transform="translate(866,733)" d="m0 0 1 4-21 43-11 23-4 9-2-3 4-8 2-6h2l3-9 6-12 5-11 9-19z" fill="#0001BE"/>
<path transform="translate(244,1077)" d="m0 0 2 4 2 1v10h-22v-6l3-1h15z" fill="#CCCCC1"/>
<path transform="translate(1036,1080)" d="m0 0 8 1 1 2v13l-7 2-4-1 1-13z" fill="#CECFBE"/>
<path transform="translate(926,1080)" d="m0 0 9 1v15l-7 2-4-1 1-12z" fill="#CFCFC1"/>
<path transform="translate(892,564)" d="m0 0 8 1 22 6 21 5 29 8 8 2v1h-7l-61-16-19-5z" fill="#0000C5"/>
<path transform="translate(880,1104)" d="m0 0h2v28h-1l-1-12-6 10-6-6 1-2 6-9z" fill="#CBCCC8"/>
<path transform="translate(653,1080)" d="m0 0 8 1v16h-11l2-16z" fill="#D0D0C9"/>
<path transform="translate(392,1080)" d="m0 0 8 1v16l-6 1-5-1 2-16z" fill="#D3D3C7"/>
<path transform="translate(1190,1103)" d="m0 0h1v29h-1l-1-12-6 10-3-3-1-5z" fill="#CFCFC1"/>
<path transform="translate(1254,868)" d="m0 0 2 1-10 5-19 7-14 4-24 3 1-3 10-2 25-4 8-3 19-7z" fill="#670504"/>
<path transform="translate(1020,528)" d="m0 0 3 3 5 27v2 3l-5 5-4-32z" fill="#ADABB1"/>
<path transform="translate(1228,574)" d="m0 0h51l21 2 21 4 10 3 9 1 4 3v2l-5-1-20-6-21-4-21-2-49-1z" fill="#A80102"/>
<path transform="translate(854,309)" d="m0 0m-4 1h4v2l-42 11-37 11-4-1 3-2 25-7 20-6 11-2 9-3 10-2z" fill="#C30001"/>
<path transform="translate(599,1113)" d="m0 0 4 4 1 3-1 17h-12l-1-1v-6h9z" fill="#D4D5D2"/>
<path transform="translate(779,309)" d="m0 0 4 1-13 4-7 2-16 5-18 6-2 2-11 2-11 4-9 1 3-2 46-15z" fill="#C40101"/>
<path transform="translate(938,291)" d="m0 0 3 1-12 3-42 9-29 7h-2v-2l5-2 22-5 16-3 30-7z" fill="#C30001"/>
<path transform="translate(1295,373)" d="m0 0h10l43 7 21 5v1h-7l-12-2-7-2-13-2h-11v-2l-14-2-10-2z" fill="#B7B461"/>
<path transform="translate(789,1076)" d="m0 0h3l1 3 1 36-2 1-3-13z" fill="#D3D4D0"/>
<path transform="translate(1018,728)" d="m0 0 2 3-3 21-5 29-5 24-2-2 2-12 5-24 5-35z" fill="#0000CA"/>
<path transform="translate(1369,471)" d="m0 0h12l29 6 24 7 16 8 8 5-2 2-7-5-16-8-21-6-22-5-10-2-11-1z" fill="#D50000"/>
<path transform="translate(1016,522)" d="m0 0 2 3 4 26 3 28v12l-2 3-3-36-3-23-1-4z" fill="#00c"/>
<path transform="translate(495,1091)" d="m0 0 6 2v15l-5 8-2-1v-23z" fill="#FBFBFB"/>
<path transform="translate(698,1077)" d="m0 0h3l2 13 2 18 1 5-5 1-3-29z" fill="#D0D1C9"/>
<path transform="translate(391,475)" d="m0 0h2l-1 3-11 6h23l15-1 5-3 3 1-9 5-30 1h-16l5-4z" fill="#C70001"/>
<path transform="translate(173,1077)" d="m0 0h3l2 13 2 24h-4l-3-29z" fill="#CFD0C8"/>
<path transform="translate(279,802)" d="m0 0h12l6 1-1 5-13 1-4-1v-2l-8 5 1-3z" fill="#FCFC01"/>
<path transform="translate(548,394)" d="m0 0h2v2l-26 12-12 6v2h-8v2l-10 4h-2v2h-5l4-3 35-17z" fill="#CB0001"/>
<path transform="translate(1106,1074)" d="m0 0 1 2 3 1v10l-5 2-8-1-3-2 3-3 9-3z" fill="#D3D4D2"/>
<path transform="translate(568,713)" d="m0 0h1v29l-2 6-1 9-2 7-2-2 1-12z" fill="#111065"/>
<path transform="translate(584,484)" d="m0 0h3v2l-29 14-8 4-8-4v-2l-3-1v-2l14-8 2 1-5 4-6 3h-2l5 5 4 1 15-8 16-8z" fill="#0000CE"/>
<path transform="translate(622,384)" d="m0 0h6v2l-34 14-19 8-2-1 8-4h3v-2l7-3 29-12z" fill="#C80001"/>
<path transform="translate(1348,1127)" d="m0 0 1 2 4 1-1 7-4 14-2-1-2-10z" fill="#D4D5D1"/>
<path transform="translate(1024,575)" d="m0 0h2l2 18v64h-1l-1-45z" fill="#8A0709"/>
<path transform="translate(1067,1127)" d="m0 0h2l1 10h-14l-1-5-3-1 1-2 14 1z" fill="#D4D4D5"/>
<path transform="translate(1197,263)" d="m0 0 17 1 34 4v1l-29-1-25-2 3-1z" fill="#D80000"/>
<path transform="translate(1216,353)" d="m0 0h28l23 2 19 2 5 2v1h-7l-20-3-26-2-22-1z" fill="#D9DADB"/>
<path transform="translate(549,417)" d="m0 0 4 1-55 26h-2v-2l13-6 1-2 8-2 11-6 8-3z" fill="#C60001"/>
<path transform="translate(423,1129)" d="m0 0h2l1 7-1 1h-13l-1-6-3-1z" fill="#D3D4D4"/>
<path transform="translate(1214,613)" d="m0 0h8l-3 2-3 1-20 2-1 35-2 1v-16l2-21 7-2z" fill="#C90000"/>
<path transform="translate(1475,1121)" d="m0 0 7 2v8l-6 2-5-3 1-7z" fill="#2C530F"/>
<path transform="translate(903,656)" d="m0 0 2 2-8 17-8 16-5 9h-1l1-7 4-6 6-12 2-7h2l3-9z" fill="#0001C2"/>
<path transform="translate(623,1127)" d="m0 0 2 3 2 5-8 3h-4l-4-7z" fill="#D4D5D5"/>
<path transform="translate(944,1076)" d="m0 0 3 1 8 32v6l-2 1-9-37z" fill="#CDCDC2"/>
<path transform="translate(1057,272)" d="m0 0h10v2l-49 6-3-1 3-2 35-4z" fill="#C60001"/>
<path transform="translate(671,1077)" d="m0 0h2l5 18 3 14v5l-2 1-8-34z" fill="#CECEC4"/>
<path transform="translate(1375,318)" d="m0 0h8l19 3-2 1v2l-17-1-16-2v-1h13l-5-1z" fill="#00c"/>
<path transform="translate(999,280)" d="m0 0h11v1l-50 8h-4v-2l36-6z" fill="#C50001"/>
<path transform="translate(373,798)" d="m0 0h1l-1 8-7 21-1 2h-2l-2 5h-2l2-6 7-16 4-13z" fill="#B9B646"/>
<path transform="translate(470,456)" d="m0 0 3 1-20 10-22 12-4 1 4-4 18-10 11-6z" fill="#C80001"/>
<path transform="translate(671,366)" d="m0 0 3 1-3 2-41 16h-2v-2l12-5 7-1v-2l10-3 12-5z" fill="#C50001"/>
<path transform="translate(1104,268)" d="m0 0h13l-2 2-37 3h-11l2-2z" fill="#CB0000"/>
<path transform="translate(1124,874)" d="m0 0 2 3v6h-48l3-3 7 1h24l12-1z" fill="#630505"/>
<path transform="translate(1268,613)" d="m0 0 10 1 15 5 19 9 5 5-5-2-20-10-11-4-9-1z" fill="#CB0001"/>
<path transform="translate(609,1084)" d="m0 0 2 2-1 5-3 4h-6v-10z" fill="#F8F8F8"/>
<path transform="translate(828,810)" d="m0 0h2l-1 6-14 28h-2l2-7 5-9 2-8 3-3z" fill="#0001B0"/>
<path transform="translate(1470,520)" d="m0 0h2l6 18 1 9-2 2-3-9-4-16z" fill="#ACAAA8"/>
<path transform="translate(652,589)" d="m0 0 4 1-4 2-36 10h-5l2-2 21-6z" fill="#0001C0"/>
<path transform="translate(1482,1128)" d="m0 0 4 2v8l-6 2-5-2v-6l6-1z" fill="#D5D6D5"/>
<path transform="translate(244,797)" d="m0 0h3l-2 5-4 4-1 3-3 3h-2l-3 9-1 2h-2l-2 9-2 1 1-7 7-14 8-10 3-2z" fill="#BBB848"/>
<path transform="translate(963,270)" d="m0 0h7v1l-16 3-22 3-1 1-18 2-1-2z" fill="#CD0000"/>
<path transform="translate(1049,541)" d="m0 0h2v2l-8 7-9 9-1 7v7h-2l-3-5 2-6 4-6 6-7 8-7z" fill="#DC0000"/>
<path transform="translate(1023,693)" d="m0 0h1v9l-3 27-2-2v-9l2-19z" fill="#0001A5"/>
<path transform="translate(1429,759)" d="m0 0 1 4-3 10-6 15-6 12h-2v3h-2l2-6 8-16 7-19z" fill="#C70001"/>
<path transform="translate(902,280)" d="m0 0h5l-3 2-19 4-16 3-6 2 1-3 27-6z" fill="#CF0000"/>
<path transform="translate(1287,848)" d="m0 0 2 1-10 8-14 8h-2l2-4 16-8 2-3z" fill="#810204"/>
<path transform="translate(1e3 803)" d="m0 0h1l-1 10-4 15-3 3v-6l3-9 2-9z" fill="#0001B6"/>
<path transform="translate(358,834)" d="m0 0h2l-3 9-6 7-3-1 1-4z" fill="#B8B545"/>
<path transform="translate(1412,638)" d="m0 0 4 2 12 21 3 8v5l-2-3-8-18-8-12z" fill="#D00000"/>
<path transform="translate(1460,829)" d="m0 0 1 4-8 24-2 1 2-10 2-9-2-1 5-5z" fill="#8B0102"/>
<path transform="translate(1420,481)" d="m0 0 8 1 13 5 12 7 5 3-2 2-7-5-16-8-13-4z" fill="#CD0001"/>
<path transform="translate(1093,1094)" d="m0 0h1v18l-5-1 2-15z" fill="#FCFCFC"/>
<path transform="translate(308,1086)" d="m0 0h4v39h-1v-32h-3z" fill="#C6C6BB"/>
<path transform="translate(697,710)" d="m0 0 2 1 10 29-1 4-6-15-3-10-2-5z" fill="#0000CA"/>
<path transform="translate(1248,901)" d="m0 0h6l-1 3h-3v2l-8 1-3-1-1-3z" fill="#590301"/>
<path transform="translate(424,480)" d="m0 0 3 1-9 5h-29v-1l30-2z" fill="#D40000"/>
<path transform="translate(801,323)" d="m0 0h3v2l-29 9-4-1 3-2 25-7z" fill="#CF0000"/>
<path transform="translate(881,702)" d="m0 0 1 4-11 22-1 3h-2l1-4 4-9 6-12z" fill="#0001C0"/>
<path transform="translate(693,336)" d="m0 0 3 1-6 4-8 2-12 4h-5l3-2z" fill="#BF0101"/>
<path transform="translate(841,785)" d="m0 0 1 4-11 23-2-3 4-8 2-6h2l3-9z" fill="#0001B6"/>
<path transform="translate(1326,367)" d="m0 0h7l10 2 9 3 10 3v2l-9-2-27-7z" fill="#D9DADB"/>
<path transform="translate(835,384)" d="m0 0 4 1-10 4-16 5h-5l3-2z" fill="#0000CF"/>
<path transform="translate(732,345)" d="m0 0h5l-3 2-28 9v-2l14-5h2v-2z" fill="#C00001"/>
<path transform="translate(1054,1077)" d="m0 0 3 1 4 15-1 7-2-4z" fill="#CCCCC2"/>
<path transform="translate(1315,580)" d="m0 0 9 1 7 2 9 1 4 3v2l-5-1-20-6z" fill="#B60101"/>
<path transform="translate(1217,265)" d="m0 0 15 1 16 2v1l-29-1-3-2z" fill="#990204"/>
<path transform="translate(1024,575)" d="m0 0h2l2 18-1 13h-1l-2-27z" fill="#870A0C"/>
<path transform="translate(657,1087)" d="m0 0h4v10h-6l1-9z" fill="#F8F8F6"/>
<path transform="translate(1438,887)" d="m0 0h2l-2 6-10 18-1-3 7-14z" fill="#43140E"/>
<path transform="translate(1353,593)" d="m0 0 7 1 8 4 6 4 1 3-5-2-17-9z" fill="#BF0101"/>
<path transform="translate(553,487)" d="m0 0 2 1-5 4-6 3h-2l5 5 4 3h-4l-5-3v-2l-3-1v-2z" fill="#0304B5"/>
<path transform="translate(1333,647)" d="m0 0 5 5 2 4h2l6 12-1 3-5-9-8-11z" fill="#C20403"/>
<path transform="translate(909,598)" d="m0 0 5 1 15 7-2 6-3 5-1-3 2-4v-3l-16-8z" fill="#0505BB"/>
<path transform="translate(931,1087)" d="m0 0h3l1 9-1 1h-5l1-9z" fill="#F7F7F7"/>
<path transform="translate(1021,729)" d="m0 0 1 2-2 17-1 6-2-2 1-11 2-11z" fill="#821012"/>
<path transform="translate(756,560)" d="m0 0 4 1-11 4-11 3h-4v-2l20-5z" fill="#0001BE"/>
<path transform="translate(1025,263)" d="m0 0h13l-4 2-3 1h-16v-2z" fill="#D50000"/>
<path transform="translate(1016,760)" d="m0 0 1 2h2v6l-1 1-1 7-3 2 1-12z" fill="#9D9DA0"/>
<path transform="translate(573,655)" d="m0 0h1l1 25v7h-3z" fill="#010297"/>
<path transform="translate(1040,1087)" d="m0 0h4v10h-5z" fill="#F9F8F6"/>
<path transform="translate(575,800)" d="m0 0 2 2 8 21v5l-2-2-8-23z" fill="#0001C2"/>
<path transform="translate(891,680)" d="m0 0h2l-1 5-8 15h-1l1-7 4-6z" fill="#0001BB"/>
<path transform="translate(790,787)" d="m0 0 2 2 8 21 1 4-3-1-8-23z" fill="#0001C0"/>
<path transform="translate(495,579)" d="m0 0h11l1 2v13l-2-2-1-10-9-1z" fill="#BAB74A"/>
<path transform="translate(1344,380)" d="m0 0 9 1 16 4v1h-7l-12-2-6-2z" fill="#BBB848"/>
<path transform="translate(944,1076)" d="m0 0 3 1 3 12v5l-2 1-4-16z" fill="#CCCCC1"/>
<path transform="translate(765,577)" d="m0 0 3 1-13 10-7 5-2-1 11-9z" fill="#0000CE"/>
<path transform="translate(675,583)" d="m0 0 4 1-16 5-8 1 4-3z" fill="#0001B7"/>
<path transform="translate(1026,575)" d="m0 0h2l1 11v14h-1l-2-13z" fill="#AD0202"/>
<path transform="translate(1031,559)" d="m0 0v3l-3 5v6l-4 2v-8z" fill="#A30102"/>
<path transform="translate(1407,396)" d="m0 0 7 1 11 6-3 1-13-5z" fill="#E5E41A"/>
<path transform="translate(720,327)" d="m0 0 3 1-11 5-12 3-4-1z" fill="#C10101"/>
<path transform="translate(876,304)" d="m0 0 4 1-18 5-6 1v-2l5-2z" fill="#C20001"/>
<path transform="translate(1016,522)" d="m0 0 2 3 2 11v12h-1l-3-17z" fill="#0000C3"/>
<path transform="translate(739,321)" d="m0 0h5l-2 2-13 4-2 2h-6l2-1v-2z" fill="#D20000"/>
<path transform="translate(1077,270)" d="m0 0h13l-2 2-10 1h-11l2-2z" fill="#D00000"/>
<path transform="translate(396,1087)" d="m0 0h4v9h-5z" fill="#FDFDFD"/>
<path transform="translate(490,445)" d="m0 0h3v2l-17 8h-3l3-3 8-4z" fill="#C90001"/>
<path transform="translate(255,953)" d="m0 0 12 5 1 2-2 2-13-7z" fill="#A09FA1"/>
<path transform="translate(647,376)" d="m0 0 3 1-20 8h-2v-2l12-5z" fill="#BE0101"/>
<path transform="translate(226,867)" d="m0 0 3 1 3 3 2 7 5 7-4-2-4-5-5-10z" fill="#B9B652"/>
<path transform="translate(1268,613)" d="m0 0 10 1 15 5v1h-5l-7-3-9-1z" fill="#CD0000"/>
<path transform="translate(1167,581)" d="m0 0h9l-1 2-6 1h-13l1-2z" fill="#B80101"/>
<path transform="translate(1049,541)" d="m0 0h2v2l-8 7-5 5-4 2 4-6z" fill="#C90001"/>
<path transform="translate(695,577)" d="m0 0 4 2-18 5-3-1 3-2z" fill="#0000C5"/>
<path transform="translate(606,369)" d="m0 0 3 1-10 5-7 3h-5l2-2z" fill="#C20101"/>
<path transform="translate(1373,317)" d="m0 0 3 1 9 2v1h-23l2-3z" fill="#0000F9"/>
<path transform="translate(244,797)" d="m0 0h3l-2 5-4 4-1 3-3 3-3-1 7-9 3-2z" fill="#B0AD3E"/>
<path transform="translate(1018,728)" d="m0 0 2 3-2 15-2 2 1-16z" fill="#0101A6"/>
<path transform="translate(663,347)" d="m0 0h5l-3 2-13 5-5 1v-2z" fill="#CA0001"/>
<path transform="translate(510,434)" d="m0 0 4 1h-2l-1 3-13 6h-2v-2l13-6z" fill="#c00"/>
<path transform="translate(819,318)" d="m0 0 3 1-6 3-12 3 1-3z" fill="#C60001"/>
<path transform="translate(690,940)" d="m0 0 6 2 4 4v2l-6-2-6-3v-2z" fill="#0D0C22"/>
<path transform="translate(1308,1086)" d="m0 0h5v9l-5-3z" fill="#D1D1B4"/>
<path transform="translate(503,415)" d="m0 0 2 1-1 2-10 4h-2v2h-5l4-3z" fill="#C40101"/>
<path transform="translate(893,300)" d="m0 0h6l-3 2-13 3h-3v-2l6-2z" fill="#CE0000"/>
<path transform="translate(1063,1114)" d="m0 0 3 1 2 12-2 3-3-13z" fill="#C8C8C0"/>
<path transform="translate(1331,797)" d="m0 0 1 2-7 11h-1v-6l5-4z" fill="#B80101"/>
<path transform="translate(279,802)" d="m0 0h6v2l-9 4-5 3 1-3z" fill="#F9F901"/>
<path transform="translate(621,363)" d="m0 0 4 1-10 5-6 1v-2z" fill="#C80001"/>
<path transform="translate(1442,488)" d="m0 0 8 4 8 5-2 2-7-5-7-4z" fill="#C10D06"/>
<path transform="translate(574,409)" d="m0 0 2 1-11 6-4-1 5-4z" fill="#9F9FA3"/>
<path transform="translate(622,384)" d="m0 0h6v2l-10 4-4-1z" fill="#CF0000"/>
<path transform="translate(819,831)" d="m0 0 1 3-5 10h-2l2-7z" fill="#01018E"/>
<path transform="translate(800,815)" d="m0 0 3 2 3 9-1 4-5-12z" fill="#0001BD"/>
<path transform="translate(564,758)" d="m0 0 2 1 1 14-2-1-2-8z" fill="#00009A"/>
<path transform="translate(733,601)" d="m0 0 3 1-8 6v6l-2-1-1-6z" fill="#0000CB"/>
<path transform="translate(470,456)" d="m0 0 3 1-14 7h-2v-2l4-3z" fill="#C20101"/>
<path transform="translate(548,1086)" d="m0 0h5v7l-5-2z" fill="#CECECD"/>
<path transform="translate(1110,962)" d="m0 0 7 1 10 5-2 1-7-3-7-2z" fill="#A6A5A3"/>
<path transform="translate(650,913)" d="m0 0h3v2h2v2l5 2 1 4-5-3-6-5z" fill="#08083B"/>
<path transform="translate(353,841)" d="m0 0h2l-2 5-2 4-3-1 1-4z" fill="#A4A137"/>
<path transform="translate(587,834)" d="m0 0 3 4 3 6-1 2-4-4-2-7z" fill="#D4D5D6"/>
<path transform="translate(516,409)" d="m0 0 4 1-8 4v2h-7v-2z" fill="#D20000"/>
<path transform="translate(671,1077)" d="m0 0h2l2 6-1 7h-1l-2-9z" fill="#CCCCBE"/>
<path transform="translate(920,959)" d="m0 0h2v2l-11 5v-3l5-3z" fill="#101015"/>
<path transform="translate(1460,829)" d="m0 0 1 4-1 3h-2l-2 8h-1v-5l-2-1 5-5z" fill="#A50102"/>
<path transform="translate(834,797)" d="m0 0 2 1-1 5-4 9-2-3 4-8z" fill="#0001C0"/>
<path transform="translate(1375,605)" d="m0 0 4 1 8 4v3l-5-2-7-5z" fill="#BF0101"/>
<path transform="translate(1192,884)" d="m0 0h4v2l7-1-4 2-10 1 1-3z" fill="#4E150E"/>
<path transform="translate(1321,813)" d="m0 0v3l-7 9-1-2 3-5h2l1-4z" fill="#9D0102"/>
<path transform="translate(1412,638)" d="m0 0 4 2 5 9-1 3-7-11z" fill="#C90101"/>
<path transform="translate(1400,625)" d="m0 0 4 1 8 10-1 2-11-12z" fill="#BC0101"/>
<path transform="translate(949,578)" d="m0 0 13 3-4 2-11-3z" fill="#0000C9"/>
<path transform="translate(576,474)" d="m0 0 3 1-11 6-4 2 1-3z" fill="#0000C5"/>
<path transform="translate(782,329)" d="m0 0h6l-4 2-9 3-4-1 3-2z" fill="#C10101"/>
<path transform="translate(1287,848)" d="m0 0 2 1-10 8h-3v-2l5-2 2-3z" fill="#7D0304"/>
<path transform="translate(693,336)" d="m0 0 3 1-6 4h-5v-2z" fill="#C80001"/>
</svg>
